<svg width="75" height="18" viewBox="0 0 75 18" fill="none" xmlns="http://www.w3.org/2000/svg">
<g clip-path="url(#clip0_1_11)">
<path d="M8.48399 4.16795L4.16795 0L3.09944e-06 4.31604L4.31604 8.48399L8.48399 4.16795Z" fill="#3654F4"/>
<path d="M14.7259 13.4079L10.4099 9.23999L6.24195 13.556L10.558 17.724L14.7259 13.4079Z" fill="#3654F4"/>
<path d="M14.7259 7.40794L10.4099 3.23999L6.24195 7.55603L10.558 11.724L14.7259 7.40794Z" fill="#3654F4"/>
<path d="M8.72598 10.4079L4.40994 6.23999L0.241992 10.556L4.55803 14.724L8.72598 10.4079Z" fill="#3654F4"/>
<path d="M20.3778 4.18182V14H19.1889V4.18182H20.3778ZM23.7397 9.57031V14H22.6083V6.63636H23.7013V7.78693H23.7972C23.9698 7.413 24.2318 7.11257 24.5834 6.88565C24.935 6.65554 25.3888 6.54048 25.9449 6.54048C26.4435 6.54048 26.8797 6.64276 27.2537 6.8473C27.6276 7.04865 27.9185 7.35547 28.1262 7.76776C28.3339 8.17685 28.4378 8.6946 28.4378 9.32102V14H27.3064V9.39773C27.3064 8.81925 27.1562 8.36861 26.8558 8.04581C26.5554 7.71982 26.1431 7.55682 25.6189 7.55682C25.2578 7.55682 24.935 7.63512 24.6505 7.79173C24.3693 7.94833 24.1472 8.17685 23.9842 8.47727C23.8212 8.7777 23.7397 9.14205 23.7397 9.57031ZM36.2629 6.63636L33.5399 14H32.3893L29.6663 6.63636H30.8936L32.9262 12.5043H33.0029L35.0356 6.63636H36.2629ZM42.9721 8.28551L41.9558 8.57315C41.8919 8.40376 41.7976 8.23917 41.6729 8.07937C41.5515 7.91637 41.3853 7.78214 41.1744 7.67667C40.9634 7.5712 40.6934 7.51847 40.3642 7.51847C39.9135 7.51847 39.538 7.62234 39.2376 7.83008C38.9403 8.03462 38.7917 8.2951 38.7917 8.61151C38.7917 8.89276 38.894 9.11488 39.0985 9.27788C39.3031 9.44087 39.6227 9.5767 40.0574 9.68537L41.1504 9.95384C41.8088 10.1136 42.2994 10.3581 42.6222 10.6873C42.945 11.0133 43.1064 11.4336 43.1064 11.9482C43.1064 12.37 42.9849 12.7472 42.742 13.0795C42.5023 13.4119 42.1667 13.674 41.7353 13.8658C41.3038 14.0575 40.802 14.1534 40.2299 14.1534C39.4789 14.1534 38.8572 13.9904 38.3651 13.6644C37.8729 13.3384 37.5613 12.8622 37.4302 12.2358L38.5041 11.9673C38.6064 12.3636 38.7997 12.6609 39.0842 12.859C39.3718 13.0572 39.7473 13.1562 40.2108 13.1562C40.7381 13.1562 41.1568 13.0444 41.4668 12.8207C41.78 12.5937 41.9366 12.3221 41.9366 12.0057C41.9366 11.75 41.8471 11.5359 41.6681 11.3633C41.4892 11.1875 41.2143 11.0565 40.8436 10.9702L39.6163 10.6825C38.9419 10.5227 38.4466 10.275 38.1301 9.93945C37.8169 9.60067 37.6603 9.1772 37.6603 8.66903C37.6603 8.25355 37.777 7.88601 38.0103 7.56641C38.2468 7.2468 38.568 6.99592 38.9739 6.81374C39.383 6.63157 39.8464 6.54048 40.3642 6.54048C41.0929 6.54048 41.665 6.70028 42.0804 7.01989C42.4991 7.33949 42.7963 7.76136 42.9721 8.28551ZM48.0119 6.63636V7.59517H44.1958V6.63636H48.0119ZM45.308 4.87216H46.4394V11.8906C46.4394 12.2102 46.4858 12.4499 46.5784 12.6097C46.6743 12.7663 46.7958 12.8718 46.9428 12.9261C47.093 12.9773 47.2512 13.0028 47.4174 13.0028C47.542 13.0028 47.6443 12.9964 47.7242 12.9837C47.8041 12.9677 47.868 12.9549 47.916 12.9453L48.1461 13.9616C48.0694 13.9904 47.9623 14.0192 47.8249 14.0479C47.6875 14.0799 47.5133 14.0959 47.3023 14.0959C46.9827 14.0959 46.6695 14.0272 46.3627 13.8897C46.0591 13.7523 45.8066 13.543 45.6052 13.2617C45.4071 12.9805 45.308 12.6257 45.308 12.1974V4.87216ZM52.6261 14.1534C51.9613 14.1534 51.3781 13.9952 50.8763 13.6788C50.3777 13.3624 49.9878 12.9197 49.7065 12.3509C49.4285 11.782 49.2895 11.1172 49.2895 10.3565C49.2895 9.58949 49.4285 8.91992 49.7065 8.34783C49.9878 7.77575 50.3777 7.3315 50.8763 7.01509C51.3781 6.69869 51.9613 6.54048 52.6261 6.54048C53.2909 6.54048 53.8726 6.69869 54.3711 7.01509C54.8729 7.3315 55.2628 7.77575 55.5409 8.34783C55.8221 8.91992 55.9628 9.58949 55.9628 10.3565C55.9628 11.1172 55.8221 11.782 55.5409 12.3509C55.2628 12.9197 54.8729 13.3624 54.3711 13.6788C53.8726 13.9952 53.2909 14.1534 52.6261 14.1534ZM52.6261 13.1371C53.1311 13.1371 53.5466 13.0076 53.8726 12.7488C54.1986 12.4899 54.4399 12.1495 54.5965 11.7276C54.7531 11.3058 54.8314 10.8487 54.8314 10.3565C54.8314 9.86435 54.7531 9.40572 54.5965 8.98065C54.4399 8.55558 54.1986 8.212 53.8726 7.94993C53.5466 7.68785 53.1311 7.55682 52.6261 7.55682C52.1211 7.55682 51.7057 7.68785 51.3797 7.94993C51.0537 8.212 50.8124 8.55558 50.6558 8.98065C50.4992 9.40572 50.4209 9.86435 50.4209 10.3565C50.4209 10.8487 50.4992 11.3058 50.6558 11.7276C50.8124 12.1495 51.0537 12.4899 51.3797 12.7488C51.7057 13.0076 52.1211 13.1371 52.6261 13.1371ZM57.6898 14V6.63636H58.7828V7.74858H58.8596C58.9938 7.38423 59.2367 7.0886 59.5882 6.86168C59.9398 6.63477 60.3361 6.52131 60.7772 6.52131C60.8603 6.52131 60.9641 6.5229 61.0888 6.5261C61.2134 6.5293 61.3077 6.53409 61.3716 6.54048V7.69105C61.3333 7.68146 61.2454 7.66708 61.108 7.6479C60.9737 7.62553 60.8315 7.61435 60.6813 7.61435C60.3233 7.61435 60.0037 7.68945 59.7225 7.83967C59.4444 7.98668 59.2239 8.19123 59.0609 8.4533C58.9011 8.71218 58.8212 9.00781 58.8212 9.3402V14H57.6898ZM67.2383 4.18182L69.7696 8.26633H69.8463L72.3775 4.18182H73.7774L70.69 9.09091L73.7774 14H72.3775L69.8463 9.99219H69.7696L67.2383 14H65.8385L69.0025 9.09091L65.8385 4.18182H67.2383Z" fill="black"/>
</g>
<defs>
<clipPath id="clip0_1_11">
<rect width="75" height="18" fill="white"/>
</clipPath>
</defs>
</svg>
